<?xml version="1.0" encoding="iso-8859-1"?>
<!-- Generator: Adobe Illustrator 19.0.0, SVG Export Plug-In . SVG Version: 6.00 Build 0)  -->
<svg version="1.1" id="Layer_1" xmlns="http://www.w3.org/2000/svg" xmlns:xlink="http://www.w3.org/1999/xlink" x="0px" y="0px"
	 viewBox="0 0 494.521 494.521" style="enable-background:new 0 0 494.521 494.521;" xml:space="preserve">
<path style="fill:#FF860D;" d="M405.427,75.429c0,21.283-17.258,169.952-38.526,169.952c-21.291,0-38.55-148.669-38.55-169.952
	s17.25-30.633,38.55-30.633C388.169,44.796,405.427,54.146,405.427,75.429z"/>
<g>
	<path style="fill:#E56107;" d="M388.626,75.429c0,21.283-9.72,169.952-21.725,169.952c-12.012,0-21.756-148.669-21.756-169.952
		s9.736-30.633,21.756-30.633C378.906,44.796,388.626,54.146,388.626,75.429z"/>
	<path style="fill:#E56107;" d="M352.227,74.279c0,1.174-0.945,2.143-2.135,2.143h-8.877c-1.174,0-2.15-0.969-2.15-2.143l0,0
		c0-1.174,0.977-2.135,2.15-2.135h8.877C351.281,72.145,352.227,73.106,352.227,74.279L352.227,74.279z"/>
</g>
<path style="fill:#FF860D;" d="M363.766,88.442c0,1.182-0.969,2.143-2.143,2.143h-8.893c-1.182,0-2.135-0.961-2.135-2.143l0,0
	c0-1.182,0.953-2.143,2.135-2.143h8.893C362.797,86.3,363.766,87.261,363.766,88.442L363.766,88.442z"/>
<path style="fill:#E56107;" d="M352.227,105.409c0,1.182-0.945,2.143-2.135,2.143h-8.877c-1.174,0-2.15-0.961-2.15-2.143l0,0
	c0-1.174,0.977-2.135,2.15-2.135h8.877C351.281,103.266,352.227,104.227,352.227,105.409L352.227,105.409z"/>
<path style="fill:#FF860D;" d="M363.766,119.572c0,1.182-0.969,2.143-2.143,2.143h-8.893c-1.182,0-2.135-0.961-2.135-2.143l0,0
	c0-1.174,0.953-2.135,2.135-2.135h8.893C362.797,117.437,363.766,118.398,363.766,119.572L363.766,119.572z"/>
<path style="fill:#E56107;" d="M352.227,136.546c0,1.166-0.945,2.135-2.135,2.135h-8.877c-1.174,0-2.15-0.969-2.15-2.135l0,0
	c0-1.189,0.977-2.15,2.15-2.15h8.877C351.281,134.396,352.227,135.357,352.227,136.546L352.227,136.546z"/>
<path style="fill:#FF860D;" d="M363.766,150.693c0,1.182-0.969,2.15-2.143,2.15h-8.893c-1.182,0-2.135-0.969-2.135-2.15l0,0
	c0-1.174,0.953-2.135,2.135-2.135h8.893C362.797,148.559,363.766,149.52,363.766,150.693L363.766,150.693z"/>
<path style="fill:#E56107;" d="M356.598,170.039c0,1.04-0.843,1.89-1.906,1.89h-7.806c-1.04,0-1.89-0.843-1.89-1.89l0,0
	c0-1.032,0.851-1.883,1.89-1.883h7.806C355.747,168.157,356.598,169.007,356.598,170.039L356.598,170.039z"/>
<path style="fill:#FF860D;" d="M358.087,182.508c0,1.032-0.843,1.883-1.89,1.883h-7.83c-1.032,0-1.875-0.843-1.875-1.883l0,0
	c0-1.04,0.843-1.89,1.875-1.89h7.83C357.244,180.618,358.087,181.461,358.087,182.508L358.087,182.508z"/>
<path style="fill:#E56107;" d="M357.599,200.578c0,0.843-0.67,1.52-1.504,1.52h-6.286c-0.835,0-1.512-0.677-1.512-1.52l0,0
	c0-0.819,0.677-1.512,1.512-1.512h6.286C356.929,199.066,357.599,199.759,357.599,200.578L357.599,200.578z"/>
<path style="fill:#FF860D;" d="M365.743,210.59c0,0.827-0.677,1.52-1.512,1.52h-6.286c-0.827,0-1.505-0.685-1.505-1.52l0,0
	c0-0.827,0.677-1.505,1.505-1.505h6.286C365.066,209.085,365.743,209.762,365.743,210.59L365.743,210.59z"/>
<path style="fill:#E56107;" d="M381.544,74.279c0,1.174,0.961,2.143,2.15,2.143h8.885c1.174,0,2.143-0.969,2.143-2.143l0,0
	c0-1.174-0.969-2.135-2.143-2.135h-8.885C382.505,72.145,381.544,73.106,381.544,74.279L381.544,74.279z"/>
<path style="fill:#FF860D;" d="M370.028,88.442c0,1.182,0.961,2.143,2.143,2.143h8.885c1.182,0,2.135-0.961,2.135-2.143l0,0
	c0-1.182-0.953-2.143-2.135-2.143h-8.885C370.989,86.3,370.028,87.261,370.028,88.442L370.028,88.442z"/>
<path style="fill:#E56107;" d="M381.544,105.409c0,1.182,0.961,2.143,2.15,2.143h8.885c1.174,0,2.143-0.961,2.143-2.143l0,0
	c0-1.174-0.969-2.135-2.143-2.135h-8.885C382.505,103.266,381.544,104.227,381.544,105.409L381.544,105.409z"/>
<path style="fill:#FF860D;" d="M370.028,119.572c0,1.182,0.961,2.143,2.143,2.143h8.885c1.182,0,2.135-0.961,2.135-2.143l0,0
	c0-1.174-0.953-2.135-2.135-2.135h-8.885C370.989,117.437,370.028,118.398,370.028,119.572L370.028,119.572z"/>
<path style="fill:#E56107;" d="M381.544,136.546c0,1.166,0.961,2.135,2.15,2.135h8.885c1.174,0,2.143-0.969,2.143-2.135l0,0
	c0-1.189-0.969-2.15-2.143-2.15h-8.885C382.505,134.396,381.544,135.357,381.544,136.546L381.544,136.546z"/>
<path style="fill:#FF860D;" d="M370.028,150.693c0,1.182,0.961,2.15,2.143,2.15h8.885c1.182,0,2.135-0.969,2.135-2.15l0,0
	c0-1.174-0.953-2.135-2.135-2.135h-8.885C370.989,148.559,370.028,149.52,370.028,150.693L370.028,150.693z"/>
<path style="fill:#E56107;" d="M377.196,170.039c0,1.04,0.843,1.89,1.883,1.89h7.83c1.024,0,1.883-0.843,1.883-1.89l0,0
	c0-1.032-0.859-1.883-1.883-1.883h-7.83C378.047,168.157,377.196,169.007,377.196,170.039L377.196,170.039z"/>
<path style="fill:#FF860D;" d="M374.967,182.508c0,1.032,0.819,1.883,1.883,1.883h7.814c1.04,0,1.883-0.843,1.883-1.883l0,0
	c0-1.04-0.843-1.89-1.883-1.89h-7.814C375.786,180.618,374.967,181.461,374.967,182.508L374.967,182.508z"/>
<path style="fill:#E56107;" d="M376.188,200.578c0,0.843,0.677,1.52,1.512,1.52h6.278c0.827,0,1.505-0.677,1.505-1.52l0,0
	c0-0.819-0.677-1.512-1.505-1.512H377.7C376.866,199.066,376.188,199.759,376.188,200.578L376.188,200.578z"/>
<path style="fill:#FF860D;" d="M368.043,210.59c0,0.827,0.67,1.52,1.512,1.52h6.286c0.827,0,1.505-0.685,1.505-1.52l0,0
	c0-0.827-0.677-1.505-1.505-1.505h-6.286C368.713,209.085,368.043,209.762,368.043,210.59L368.043,210.59z"/>
<path style="fill:#FFAF10;" d="M399.882,57.738c-6.743-8.862-18.96-12.942-32.981-12.942c-14.029,0-26.262,4.08-32.996,12.942
	c1.946,7.633,15.951,5.285,32.996,5.285C383.923,63.023,397.936,65.378,399.882,57.738z"/>
<path style="fill:#FF860D;" d="M366.901,63.023c7.704,0,14.785,0.473,20.417,0.291c-3.025-12.737-11.02-18.519-20.417-18.519
	c-9.421,0-17.416,5.782-20.441,18.519C352.116,63.496,359.19,63.023,366.901,63.023z"/>
<path style="fill:#68AD27;" d="M348.698,15.99c1.906,2.662,21.346,34.54,18.692,36.439c-2.678,1.898-26.435-26.908-28.349-29.554
	c-1.898-2.67-1.276-6.372,1.394-8.271C343.105,12.705,346.799,13.328,348.698,15.99z"/>
<path style="fill:#5C8729;" d="M344.602,29.728c1.969,1.528,23.119,20.519,21.591,22.489c-1.528,1.961-25.175-13.832-27.136-15.36
	c-1.961-1.536-2.324-4.364-0.788-6.333C339.797,28.554,342.632,28.199,344.602,29.728z"/>
<path style="fill:#7FCC2E;" d="M359.67,12.516c1.048,3.104,10.468,39.235,7.357,40.29c-3.111,1.04-17.542-33.382-18.582-36.494
	c-1.048-3.096,0.607-6.459,3.726-7.515C355.251,7.759,358.623,9.421,359.67,12.516z"/>
<path style="fill:#68AD27;" d="M385.081,15.99c-1.898,2.662-21.339,34.54-18.676,36.439c2.67,1.898,26.435-26.908,28.341-29.554
	c1.898-2.67,1.284-6.372-1.386-8.271C390.682,12.705,386.972,13.328,385.081,15.99z"/>
<path style="fill:#5C8729;" d="M389.185,29.728c-1.977,1.528-23.111,20.519-21.583,22.489c1.52,1.961,25.159-13.832,27.128-15.36
	c1.946-1.536,2.324-4.364,0.788-6.333C393.99,28.554,391.154,28.199,389.185,29.728z"/>
<path style="fill:#7FCC2E;" d="M374.116,12.516c-1.048,3.104-10.453,39.235-7.357,40.29c3.111,1.04,17.534-33.382,18.574-36.494
	c1.056-3.096-0.614-6.459-3.71-7.515C378.535,7.759,375.156,9.421,374.116,12.516z"/>
<path style="fill:#5C8729;" d="M373.321,6.42c0,3.552-2.867,46.608-6.412,46.608c-3.552,0-6.428-43.055-6.428-46.608
	c0-3.545,2.875-6.42,6.428-6.42C370.454,0,373.321,2.883,373.321,6.42z"/>
<g>
	<circle style="fill:#7FCC2E;" cx="332.881" cy="23.308" r="1.568"/>
	<circle style="fill:#7FCC2E;" cx="396.841" cy="44.796" r="1.568"/>
	<circle style="fill:#7FCC2E;" cx="332.96" cy="28.83" r="0.819"/>
	<circle style="fill:#7FCC2E;" cx="396.526" cy="26.025" r="0.827"/>
	<circle style="fill:#7FCC2E;" cx="343.507" cy="5.27" r="2.962"/>
</g>
<g>
	<circle style="fill:#5C8729;" cx="340.994" cy="44.639" r="1.52"/>
	<circle style="fill:#5C8729;" cx="389.949" cy="8.153" r="2.379"/>
</g>
<path style="fill:#7FAD8F;" d="M409.161,144.959c-14.706,0-27.695,7.428-35.415,18.708c-7.712-11.288-20.701-18.708-35.407-18.708
	c-23.686,0-43.733,19.22-42.874,42.89c1.575,43.922,56.911,45.253,75.697,93.152c0.945,2.434,1.812,3.411,2.584,3.332
	c0.788,0.079,1.646-0.898,2.591-3.332c18.786-47.9,74.114-49.231,75.697-93.152C452.894,164.179,432.839,144.959,409.161,144.959z"
	/>
<path style="fill:#91BCA2;" d="M373.746,206.517c28.451,0,54.351,0.945,73.681-0.378c2.678-5.238,4.348-11.201,4.608-18.29
	c0.41-11.036-3.781-21.079-10.728-28.68c-4.104-1.166-8.452-2.245-13.021-3.182c-1.961-0.197-3.946-0.307-5.955-0.307
	c-20.181,0-37.99,10.177-48.585,25.679c-10.602-15.502-28.396-25.679-48.593-25.679c-2.016,0-3.986,0.11-5.955,0.307
	c-4.561,0.945-8.917,2.016-13.005,3.182c-6.947,7.593-11.138,17.629-10.728,28.68c0.244,7.089,1.922,13.052,4.6,18.29
	C319.38,207.462,345.271,206.517,373.746,206.517z"/>
<path style="fill:#A7C6B6;" d="M373.746,182.004c37.163,0,68.317,2.19,76.721-6.766c-3.513-12.012-12.579-21.78-24.135-26.726
	c-3.946-1.26-8.231-2.379-12.832-3.332c-1.426-0.15-2.883-0.221-4.34-0.221c-14.706,0-27.695,7.428-35.415,18.708
	c-7.712-11.288-20.701-18.708-35.407-18.708c-1.465,0-2.914,0.079-4.34,0.221c-4.584,0.961-8.901,2.072-12.832,3.332
	c-11.555,4.939-20.606,14.714-24.135,26.726C305.43,184.194,336.599,182.004,373.746,182.004z"/>
<g>
	<path style="fill:#BFD8CC;" d="M361.537,163.021c0,6.774-9.61,0.268-21.441,0.268c-11.855,0-21.449,6.506-21.449-0.268
		c0-6.766,9.594-12.256,21.449-12.256C351.927,150.764,361.537,156.255,361.537,163.021z"/>
	<circle style="fill:#BFD8CC;" cx="311.369" cy="167.361" r="3.45"/>
	<circle style="fill:#BFD8CC;" cx="306.21" cy="173.686" r="1.15"/>
	<path style="fill:#BFD8CC;" d="M430.956,163.021c0,6.774-9.594,0.268-21.433,0.268c-11.855,0-21.449,6.506-21.449-0.268
		c0-6.766,9.594-12.256,21.449-12.256C421.37,150.764,430.956,156.255,430.956,163.021z"/>
	<circle style="fill:#BFD8CC;" cx="380.772" cy="167.361" r="3.442"/>
	<circle style="fill:#BFD8CC;" cx="375.637" cy="173.686" r="1.15"/>
</g>
<path style="fill:#2F7745;" d="M373.707,163.675c0,0,4.332-49.585-22.875-61.345c-18.085-7.838-16.494,15.124-6.396,18.786
	c0,0-17.353-12.524-21.937-1.229c-3.702,9.051,9.57,14.982,19.645,14.982c0,0-17.936-2.93-17.888,4.576
	c0.047,5.569,4.584,7.333,21.087,5.49C361.836,143.108,373.707,163.675,373.707,163.675z"/>
<path style="fill:#3D9955;" d="M350.824,102.329c-6.168-2.662-10.043-1.757-12.067,0.748c0.378,5.9,14.352,12.012,22.583,26.372
	c5.049,8.822,4.892,21.583,7.735,27.821c2.97,3.513,4.624,6.396,4.624,6.396S378.039,114.081,350.824,102.329z"/>
<path style="fill:#2F7745;" d="M373.786,163.675c0,0-4.332-49.585,22.851-61.345c18.101-7.838,16.51,15.124,6.412,18.786
	c0,0,17.361-12.524,21.937-1.229c3.702,9.051-9.57,14.982-19.629,14.982c0,0,17.912-2.93,17.857,4.576
	c-0.032,5.569-4.569,7.333-21.071,5.49C385.648,143.108,373.786,163.675,373.786,163.675z"/>
<path style="fill:#3D9955;" d="M396.644,102.329c6.176-2.662,10.067-1.757,12.091,0.748c-0.378,5.9-14.36,12.012-22.591,26.372
	c-5.057,8.822-4.899,21.583-7.751,27.821c-2.938,3.513-4.6,6.396-4.6,6.396S369.461,114.081,396.644,102.329z"/>
<circle style="fill:#2F7745;" cx="373.746" cy="102.975" r="6.254"/>
<path style="fill:#3D9955;" d="M380.001,102.975c0,3.45-2.796,0.827-6.254,0.827c-3.458,0-6.254,2.623-6.254-0.827
	c0-3.45,2.788-6.254,6.254-6.254C377.196,96.721,380.001,99.525,380.001,102.975z"/>
<circle style="fill:#2F7745;" cx="373.738" cy="115.917" r="3.348"/>
<path style="fill:#3D9955;" d="M377.086,115.917c0,1.843-1.481,0.433-3.348,0.433c-1.851,0-3.356,1.41-3.356-0.433
	c0-1.859,1.497-3.356,3.356-3.356C375.613,112.561,377.086,114.058,377.086,115.917z"/>
<g>
	<path style="fill:#43A52F;" d="M295.111,149.677h-0.827l-11.012,2.962l-11.028-2.962h-0.819c0,0-4.285,3.245-3.253,6.514
		l3.663-1.016l2.844,4.892l1.631-2.851l2.655,1.827l1.229-2.237l2.788,2.788l0.102,0.465l0.181-0.181l0.173,0.181l0.102-0.465
		l2.788-2.788l1.229,2.237l2.647-1.827l1.623,2.851l2.859-4.892l3.663,1.016C299.388,152.923,295.111,149.677,295.111,149.677z"/>
	<path style="fill:#43A52F;" d="M283.028,60.833c0,0,4.08-20.575-3.056-44.213c0,0,1.008,17.109-0.63,23.631
		c-1.615,6.514,0.827,7.735,1.434,11.193C281.389,54.918,283.028,60.833,283.028,60.833z"/>
	<path style="fill:#43A52F;" d="M284.729,62.968c0,0-7.735-5.104-7.956-23.639c-0.189-18.542-4.679-35.249-4.679-35.249
		s5.908,12.225,7.121,20.787c1.237,8.546,1.638,23.426,1.638,23.426l2.851,5.711L284.729,62.968z"/>
	<path style="fill:#43A52F;" d="M283.721,65c0,0-5.482-14.36,1.843-31.484c7.333-17.109,17.739-18.645,17.739-18.645
		s-15.297,7.034-15.904,29.956c0,0-1.229,5.506-1.835,10.09C284.958,59.502,283.721,65,283.721,65z"/>
</g>
<path style="fill:#D84A81;" d="M259.35,152.631c9.925,0,18.692-5.018,23.914-12.635c5.222,7.617,13.958,12.635,23.914,12.635
	c15.982,0,29.538-12.981,28.956-28.971c-1.071-29.672-38.424-30.57-51.121-62.913c-0.646-1.646-1.221-2.308-1.749-2.253
	c-0.528-0.055-1.119,0.607-1.757,2.253c-12.69,32.335-50.05,33.241-51.129,62.913C229.811,139.65,243.36,152.631,259.35,152.631z"/>
<path style="fill:#C63C74;" d="M283.264,111.049c-19.22,0-36.706-0.622-49.774,0.252c-1.796,3.545-2.938,7.578-3.111,12.367
	c-0.26,7.452,2.56,14.226,7.247,19.361c2.781,0.788,5.719,1.52,8.791,2.158c1.339,0.134,2.662,0.197,4.025,0.197
	c13.643,0,25.671-6.877,32.823-17.337c7.152,10.461,19.18,17.337,32.815,17.337c1.347,0,2.678-0.079,4.025-0.197
	c3.08-0.646,6.018-1.371,8.783-2.15c4.695-5.128,7.515-11.918,7.247-19.369c-0.165-4.789-1.3-8.822-3.119-12.367
	C319.963,110.427,302.492,111.049,283.264,111.049z"/>
<g>
	<path style="fill:#A82D65;" d="M283.264,127.598c-25.096,0-46.135-1.473-51.822,4.584c2.387,8.113,8.476,14.706,16.305,18.046
		c2.662,0.851,5.569,1.599,8.673,2.253c0.977,0.102,1.946,0.158,2.93,0.158c9.925,0,18.692-5.018,23.914-12.635
		c5.222,7.617,13.958,12.635,23.914,12.635c0.977,0,1.961-0.055,2.93-0.158c3.096-0.646,6.002-1.394,8.649-2.253
		c7.822-3.34,13.934-9.933,16.305-18.046C329.407,126.125,308.352,127.598,283.264,127.598z"/>
	<ellipse style="fill:#A82D65;" cx="283.256" cy="143.856" rx="23.079" ry="11.626"/>
</g>
<ellipse style="fill:#76A32F;" cx="181.014" cy="140.43" rx="65.363" ry="34.241"/>
<path style="fill:#E56107;" d="M259.082,249.856c0,19.826-34.934,43.859-78.029,43.859c-43.118,0-78.045-24.032-78.045-43.859
	c0-19.842,34.934-35.911,78.045-35.911C224.148,213.945,259.082,230.014,259.082,249.856z"/>
<path style="fill:#FF8C1A;" d="M130.798,200.16c0,43.355,30.169,78.509-8.83,78.509c-38.983,0-70.593-35.147-70.593-78.509
	c0-43.378,31.61-78.541,70.593-78.541C160.967,121.628,130.798,156.79,130.798,200.16z"/>
<path style="fill:#FF7415;" d="M130.798,200.16c0,43.355,30.169,78.509-8.83,78.509c-38.983,0-70.593-35.147-70.593-78.509"/>
<path style="fill:#E56107;" d="M79.504,200.16c0,37.376,23.513,68.577,54.965,76.516c18.637-8.003-3.671-39.211-3.671-76.516
	c0-37.337,22.307-68.553,3.671-76.532C103.016,131.56,79.504,162.769,79.504,200.16z"/>
<path style="fill:#FF8C1A;" d="M231.292,200.16c0-43.37-30.176-78.541,8.814-78.541s70.601,35.17,70.601,78.541
	c0,43.355-31.61,78.509-70.601,78.509S231.292,243.523,231.292,200.16z"/>
<path style="fill:#FF7415;" d="M310.707,200.16c0,43.355-31.61,78.509-70.601,78.509s-8.814-35.147-8.814-78.509"/>
<path style="fill:#E56107;" d="M282.571,200.16c0-37.392-23.505-68.6-54.965-76.532c-18.629,7.979,3.679,39.196,3.679,76.532
	c0,37.321-22.307,68.529-3.679,76.516C259.066,268.745,282.571,237.544,282.571,200.16z"/>
<ellipse style="fill:#FF8C1A;" cx="181.014" cy="201.515" rx="72.397" ry="83.023"/>
<path style="fill:#FF7415;" d="M108.648,201.515c0,45.836,32.398,83.023,72.397,83.023c39.983,0,72.397-37.187,72.397-83.023"/>
<path style="fill:#76A32F;" d="M168.403,114.948c-1.166,0-2.339-0.433-3.245-1.331c-16.384-16.392-16.384-43.071,0-59.463
	c13.485-13.462,35.399-13.477,48.884,0c11.122,11.13,11.122,29.255-0.016,40.385c-9.263,9.271-24.348,9.271-33.603,0
	c-7.751-7.767-7.743-20.401,0.008-28.176c1.804-1.78,4.695-1.78,6.475,0c1.788,1.796,1.788,4.695,0,6.467
	c-4.198,4.206-4.206,11.036-0.016,15.242c5.703,5.711,14.966,5.695,20.669,0c7.57-7.562,7.57-19.881,0-27.443
	c-9.917-9.886-26.033-9.886-35.927,0c-12.839,12.832-12.839,33.705,0,46.521c1.78,1.796,1.78,4.687,0,6.467
	C170.742,114.515,169.576,114.948,168.403,114.948z"/>
<path style="fill:#F41650;" d="M339.056,189.96c-16.203,16.195-51.641,25.395-67.836,9.184
	c-16.187-16.187-6.995-51.625,9.208-67.836c16.187-16.187,34.997-8.736,51.192,7.459
	C347.808,154.955,355.251,173.765,339.056,189.96z"/>
<path style="fill:#E0103D;" d="M339.056,189.96c-16.203,16.195-51.641,25.395-67.836,9.184
	c-16.187-16.187-6.995-51.625,9.208-67.836c16.187-16.187,31.602-5.348,47.789,10.831
	C344.413,158.342,355.251,173.765,339.056,189.96z"/>
<g>
	<path style="fill:#C10C3C;" d="M339.056,189.96c-16.203,16.195-51.641,25.395-67.836,9.184
		c-16.187-16.187-6.995-51.625,9.208-67.836c16.187-16.187,15.273,10.98,31.46,27.167
		C328.092,174.663,355.251,173.765,339.056,189.96z"/>
	<path style="fill:#C10C3C;" d="M271.22,199.136c16.203,16.211,51.641,7.01,67.836-9.184s8.743-35.005-7.436-51.2"/>
</g>
<path style="fill:#AA0539;" d="M311.889,158.468l-40.669,40.669c16.203,16.211,51.641,7.01,67.836-9.184
	C355.251,173.765,328.092,174.663,311.889,158.468z"/>
<circle style="fill:#A0104B;" cx="304.303" cy="129.347" r="1.835"/>
<path style="fill:#8E0939;" d="M305.595,130.647c-0.701,0.733-1.875,0.733-2.591,0.008c-0.725-0.725-0.725-1.883,0.008-2.615
	c0.709-0.717,1.292-0.126,2.016,0.575C305.753,129.355,306.328,129.93,305.595,130.647z"/>
<circle style="fill:#A0104B;" cx="311.645" cy="136.688" r="1.851"/>
<path style="fill:#8E0939;" d="M312.952,137.988c-0.725,0.733-1.89,0.733-2.599,0.008c-0.74-0.717-0.74-1.89-0.016-2.623
	c0.725-0.709,1.315-0.134,2.04,0.599C313.078,136.688,313.669,137.279,312.952,137.988z"/>
<circle style="fill:#A0104B;" cx="318.994" cy="144.03" r="1.843"/>
<path style="fill:#8E0939;" d="M320.293,145.337c-0.725,0.717-1.883,0.725-2.607,0.008c-0.717-0.725-0.725-1.906,0-2.623
	c0.725-0.725,1.308-0.134,2.032,0.599C320.435,144.03,321.018,144.62,320.293,145.337z"/>
<circle style="fill:#A0104B;" cx="326.335" cy="151.387" r="1.843"/>
<path style="fill:#8E0939;" d="M327.635,152.686c-0.717,0.725-1.875,0.725-2.607,0c-0.733-0.725-0.717-1.883,0.008-2.607
	s1.3-0.15,2.016,0.575C327.792,151.394,328.359,151.969,327.635,152.686z"/>
<circle style="fill:#A0104B;" cx="333.668" cy="158.72" r="1.851"/>
<path style="fill:#8E0939;" d="M335.008,160.028c-0.748,0.725-1.89,0.725-2.631,0c-0.717-0.717-0.717-1.883,0-2.615
	c0.74-0.717,1.3-0.134,2.032,0.591C335.118,158.728,335.716,159.311,335.008,160.028z"/>
<circle style="fill:#A0104B;" cx="341.073" cy="166.046" r="1.843"/>
<path style="fill:#8E0939;" d="M342.333,167.369c-0.725,0.717-1.883,0.717-2.607,0c-0.725-0.725-0.725-1.89,0-2.607
	c0.725-0.725,1.292-0.15,2.024,0.575C342.475,166.061,343.042,166.644,342.333,167.369z"/>
<circle style="fill:#A0104B;" cx="296.923" cy="136.736" r="1.851"/>
<path style="fill:#8E0939;" d="M298.23,138.043c-0.74,0.733-1.898,0.733-2.631,0c-0.717-0.709-0.717-1.875,0.016-2.615
	c0.717-0.717,1.3-0.126,2.016,0.591C298.356,136.743,298.939,137.334,298.23,138.043z"/>
<circle style="fill:#A0104B;" cx="304.256" cy="144.085" r="1.843"/>
<path style="fill:#8E0939;" d="M305.556,145.384c-0.725,0.733-1.883,0.733-2.599,0.016c-0.725-0.725-0.725-1.898,0-2.623
	c0.717-0.717,1.3-0.134,2.032,0.583C305.698,144.093,306.28,144.675,305.556,145.384z"/>
<circle style="fill:#A0104B;" cx="311.597" cy="151.426" r="1.851"/>
<path style="fill:#8E0939;" d="M312.905,152.734c-0.725,0.725-1.898,0.725-2.615,0.008c-0.717-0.725-0.725-1.898,0-2.623
	c0.717-0.709,1.308-0.118,2.024,0.591C313.039,151.434,313.614,152.017,312.905,152.734z"/>
<circle style="fill:#A0104B;" cx="318.947" cy="158.775" r="1.843"/>
<path style="fill:#8E0939;" d="M320.254,160.083c-0.74,0.725-1.898,0.725-2.607,0c-0.725-0.725-0.725-1.883,0-2.615
	c0.709-0.725,1.3-0.142,2.024,0.591C320.38,158.775,320.971,159.358,320.254,160.083z"/>
<circle style="fill:#A0104B;" cx="326.296" cy="166.124" r="1.843"/>
<path style="fill:#8E0939;" d="M327.595,167.424c-0.733,0.725-1.89,0.717-2.607,0c-0.733-0.717-0.733-1.883,0-2.607
	c0.717-0.725,1.3-0.134,2.016,0.575C327.737,166.109,328.312,166.707,327.595,167.424z"/>
<circle style="fill:#A0104B;" cx="333.668" cy="173.45" r="1.851"/>
<path style="fill:#8E0939;" d="M334.945,174.765c-0.733,0.725-1.898,0.725-2.623,0c-0.717-0.717-0.717-1.89,0-2.615
	c0.725-0.717,1.308-0.142,2.032,0.591C335.063,173.458,335.661,174.048,334.945,174.765z"/>
<circle style="fill:#A0104B;" cx="286.438" cy="139.871" r="1.843"/>
<path style="fill:#8E0939;" d="M287.738,141.178c-0.717,0.725-1.883,0.725-2.599,0.008c-0.725-0.717-0.725-1.898,0-2.623
	c0.717-0.709,1.3-0.134,2.024,0.591C287.872,139.878,288.455,140.461,287.738,141.178z"/>
<circle style="fill:#A0104B;" cx="293.811" cy="147.212" r="1.843"/>
<path style="fill:#8E0939;" d="M295.079,148.512c-0.725,0.725-1.883,0.725-2.607,0.008c-0.717-0.725-0.733-1.898,0-2.615
	c0.725-0.725,1.315-0.134,2.032,0.591C295.229,147.212,295.804,147.803,295.079,148.512z"/>
<circle style="fill:#A0104B;" cx="301.137" cy="154.553" r="1.843"/>
<path style="fill:#8E0939;" d="M302.429,155.853c-0.717,0.725-1.883,0.733-2.607,0.008c-0.725-0.717-0.725-1.89,0-2.623
	c0.725-0.717,1.3-0.134,2.024,0.599C302.563,154.553,303.161,155.144,302.429,155.853z"/>
<circle style="fill:#A0104B;" cx="308.462" cy="161.902" r="1.843"/>
<path style="fill:#8E0939;" d="M309.778,163.21c-0.733,0.725-1.898,0.725-2.615,0c-0.733-0.725-0.733-1.89,0.008-2.607
	c0.717-0.725,1.284-0.158,2.009,0.583C309.912,161.91,310.487,162.485,309.778,163.21z"/>
<circle style="fill:#A0104B;" cx="315.788" cy="169.244" r="1.843"/>
<path style="fill:#8E0939;" d="M317.119,170.551c-0.725,0.725-1.89,0.725-2.615,0c-0.725-0.717-0.709-1.883,0-2.607
	c0.725-0.725,1.315-0.142,2.032,0.583C317.253,169.244,317.836,169.826,317.119,170.551z"/>
<circle style="fill:#A0104B;" cx="323.113" cy="176.593" r="1.843"/>
<path style="fill:#8E0939;" d="M324.46,177.892c-0.717,0.733-1.883,0.733-2.607,0.016c-0.717-0.733-0.717-1.906,0-2.623
	c0.733-0.725,1.308-0.134,2.032,0.599C324.594,176.593,325.185,177.176,324.46,177.892z"/>
<circle style="fill:#A0104B;" cx="330.518" cy="183.942" r="1.843"/>
<path style="fill:#8E0939;" d="M331.81,185.242c-0.733,0.717-1.89,0.717-2.623,0c-0.717-0.725-0.717-1.883,0.016-2.615
	c0.717-0.717,1.308-0.134,2.009,0.583C331.943,183.934,332.526,184.517,331.81,185.242z"/>
<circle style="fill:#A0104B;" cx="282.405" cy="151.253" r="1.851"/>
<path style="fill:#8E0939;" d="M283.713,152.56c-0.717,0.717-1.875,0.709-2.615-0.016c-0.717-0.725-0.717-1.89,0-2.607
	c0.733-0.725,1.315-0.134,2.032,0.583C283.855,151.245,284.438,151.82,283.713,152.56z"/>
<path style="fill:#A0104B;" d="M291.054,159.894c-0.725,0.717-1.875,0.717-2.591,0c-0.74-0.725-0.74-1.883,0-2.615
	c0.717-0.717,1.875-0.717,2.599,0C291.779,158.011,291.779,159.169,291.054,159.894z"/>
<path style="fill:#8E0939;" d="M291.054,159.894c-0.725,0.717-1.875,0.717-2.591,0c-0.74-0.725-0.74-1.883,0-2.615
	c0.717-0.717,1.3-0.134,2.016,0.591C291.188,158.602,291.779,159.169,291.054,159.894z"/>
<path style="fill:#A0104B;" d="M298.388,167.235c-0.709,0.725-1.867,0.717-2.591,0c-0.733-0.717-0.733-1.875,0-2.615
	c0.725-0.725,1.883-0.717,2.591,0C299.128,165.344,299.128,166.51,298.388,167.235z"/>
<path style="fill:#8E0939;" d="M298.388,167.235c-0.709,0.725-1.867,0.717-2.591,0c-0.733-0.717-0.733-1.875,0-2.615
	c0.725-0.725,1.292-0.126,2.032,0.583C298.545,165.927,299.128,166.51,298.388,167.235z"/>
<circle style="fill:#A0104B;" cx="304.445" cy="173.292" r="1.843"/>
<path style="fill:#8E0939;" d="M305.753,174.576c-0.725,0.725-1.89,0.725-2.615,0c-0.717-0.717-0.717-1.883,0-2.607
	c0.725-0.717,1.308-0.142,2.024,0.591C305.863,173.277,306.462,173.859,305.753,174.576z"/>
<path style="fill:#A0104B;" d="M313.078,181.925c-0.725,0.725-1.883,0.725-2.591,0c-0.725-0.717-0.74-1.89-0.016-2.607
	c0.74-0.717,1.898-0.717,2.607,0C313.803,180.027,313.819,181.209,313.078,181.925z"/>
<path style="fill:#8E0939;" d="M313.078,181.925c-0.725,0.725-1.883,0.725-2.591,0c-0.725-0.717-0.74-1.89-0.016-2.607
	c0.74-0.717,1.315-0.134,2.032,0.583C313.22,180.618,313.819,181.209,313.078,181.925z"/>
<circle style="fill:#A0104B;" cx="319.128" cy="187.967" r="1.843"/>
<path style="fill:#8E0939;" d="M320.427,189.267c-0.717,0.725-1.875,0.717-2.607,0c-0.717-0.725-0.717-1.875,0-2.607
	c0.733-0.725,1.308-0.142,2.032,0.583S321.16,188.542,320.427,189.267z"/>
<circle style="fill:#A0104B;" cx="275.616" cy="158.09" r="1.851"/>
<path style="fill:#8E0939;" d="M276.915,159.358c-0.717,0.709-1.883,0.709-2.615-0.008c-0.717-0.725-0.717-1.89,0-2.607
	c0.733-0.725,1.308-0.142,2.032,0.575C277.041,158.05,277.632,158.625,276.915,159.358z"/>
<circle style="fill:#A0104B;" cx="282.941" cy="165.415" r="1.843"/>
<path style="fill:#8E0939;" d="M284.241,166.691c-0.717,0.725-1.875,0.733-2.591,0c-0.733-0.717-0.733-1.89,0-2.615
	c0.717-0.717,1.3-0.134,2.017,0.591C284.398,165.392,284.973,165.975,284.241,166.691z"/>
<circle style="fill:#A0104B;" cx="290.29" cy="172.741" r="1.843"/>
<path style="fill:#8E0939;" d="M291.598,174.033c-0.725,0.717-1.883,0.717-2.607,0c-0.725-0.717-0.725-1.89,0-2.607
	c0.725-0.725,1.308-0.126,2.032,0.583C291.732,172.741,292.323,173.308,291.598,174.033z"/>
<circle style="fill:#A0104B;" cx="297.639" cy="180.082" r="1.843"/>
<path style="fill:#8E0939;" d="M298.947,181.382c-0.725,0.725-1.898,0.725-2.615,0c-0.725-0.717-0.725-1.883,0-2.607
	c0.717-0.717,1.3-0.134,2.024,0.591C299.081,180.074,299.672,180.665,298.947,181.382z"/>
<circle style="fill:#A0104B;" cx="304.981" cy="187.431" r="1.843"/>
<path style="fill:#8E0939;" d="M306.28,188.731c-0.717,0.717-1.883,0.717-2.607,0c-0.709-0.725-0.709-1.906,0-2.615
	c0.74-0.725,1.315-0.142,2.024,0.591C306.414,187.416,307.021,188.006,306.28,188.731z"/>
<path style="fill:#A0104B;" d="M313.614,196.072c-0.701,0.709-1.859,0.709-2.591,0c-0.717-0.725-0.717-1.89,0.008-2.607
	c0.725-0.725,1.883-0.725,2.584,0C314.354,194.182,314.354,195.348,313.614,196.072z"/>
<path style="fill:#8E0939;" d="M313.614,196.072c-0.701,0.709-1.859,0.709-2.591,0c-0.717-0.725-0.717-1.89,0.008-2.607
	c0.725-0.725,1.3-0.142,2.017,0.575C313.779,194.765,314.354,195.348,313.614,196.072z"/>
<circle style="fill:#A0104B;" cx="271.882" cy="169.11" r="1.843"/>
<path style="fill:#8E0939;" d="M273.189,170.417c-0.717,0.725-1.883,0.725-2.607,0c-0.733-0.717-0.733-1.883,0-2.615
	c0.717-0.717,1.3-0.126,2.024,0.591C273.331,169.125,273.906,169.7,273.189,170.417z"/>
<circle style="fill:#A0104B;" cx="279.231" cy="176.459" r="1.843"/>
<path style="fill:#8E0939;" d="M280.539,177.759c-0.725,0.733-1.89,0.733-2.615,0.008c-0.717-0.717-0.717-1.883,0-2.607
	c0.725-0.717,1.315-0.15,2.032,0.583C280.665,176.459,281.255,177.042,280.539,177.759z"/>
<circle style="fill:#A0104B;" cx="286.572" cy="183.808" r="1.843"/>
<path style="fill:#8E0939;" d="M287.872,185.108c-0.717,0.717-1.875,0.717-2.599,0c-0.717-0.725-0.717-1.898,0-2.615
	c0.725-0.725,1.3-0.134,2.032,0.583C288.022,183.8,288.605,184.391,287.872,185.108z"/>
<path style="fill:#A0104B;" d="M295.229,192.449c-0.725,0.74-1.89,0.725-2.615,0c-0.717-0.709-0.717-1.867,0-2.607
	c0.725-0.717,1.891-0.709,2.615,0C295.946,190.566,295.946,191.732,295.229,192.449z"/>
<path style="fill:#8E0939;" d="M295.229,192.449c-0.725,0.74-1.89,0.725-2.615,0c-0.717-0.709-0.717-1.867,0-2.607
	c0.725-0.717,1.315-0.134,2.024,0.583C295.363,191.149,295.946,191.732,295.229,192.449z"/>
<circle style="fill:#A0104B;" cx="301.294" cy="198.491" r="1.843"/>
<path style="fill:#8E0939;" d="M302.563,199.79c-0.725,0.725-1.883,0.717-2.607,0c-0.725-0.725-0.725-1.883,0-2.607
	c0.733-0.717,1.3-0.142,2.024,0.583C302.704,198.491,303.295,199.073,302.563,199.79z"/>
<circle style="fill:#A0104B;" cx="268.763" cy="179.578" r="1.843"/>
<path style="fill:#8E0939;" d="M270.062,180.886c-0.725,0.725-1.875,0.725-2.607,0.008c-0.733-0.725-0.717-1.89,0-2.615
	c0.733-0.717,1.292-0.134,2.032,0.591C270.204,179.594,270.771,180.169,270.062,180.886z"/>
<circle style="fill:#A0104B;" cx="276.088" cy="186.919" r="1.843"/>
<path style="fill:#8E0939;" d="M277.411,188.219c-0.733,0.733-1.906,0.733-2.615,0.016c-0.725-0.725-0.725-1.89,0-2.623
	c0.717-0.717,1.315-0.134,2.024,0.591C277.545,186.919,278.128,187.51,277.411,188.219z"/>
<circle style="fill:#A0104B;" cx="283.414" cy="194.276" r="1.843"/>
<path style="fill:#8E0939;" d="M284.745,195.576c-0.717,0.733-1.867,0.733-2.607,0c-0.725-0.717-0.725-1.89,0.008-2.607
	c0.733-0.725,1.3-0.158,2.032,0.583C284.879,194.269,285.47,194.859,284.745,195.576z"/>
<circle style="fill:#A0104B;" cx="290.818" cy="201.618" r="1.843"/>
<path style="fill:#8E0939;" d="M292.094,202.925c-0.725,0.717-1.89,0.717-2.615,0c-0.725-0.725-0.725-1.898,0.008-2.615
	c0.717-0.725,1.3-0.134,2.032,0.583C292.236,201.618,292.819,202.201,292.094,202.925z"/>
<path style="fill:#3A8708;" d="M350.494,139.91c0,0,3.497-2.82,0.567-6.349c-2.93-3.545-10.799,0.929-10.799,0.929
	s3.915-3.915,3.545-6.963c-0.008-0.347-0.142-0.536-0.307-0.646c-0.102-0.165-0.315-0.299-0.654-0.331
	c-3.048-0.362-6.971,3.56-6.971,3.56s4.474-7.877,0.937-10.815c-3.529-2.93-6.365,0.591-6.365,0.591
	c1.796-4.86-5.561-17.92-11.201-5.805c-4.915,10.524,5.482,24.529,8.279,27.995c-0.032,0.047-0.063,0.087-0.063,0.087
	s0.15,0.118,0.386,0.339c0.228,0.26,0.354,0.394,0.354,0.394s0.024-0.016,0.071-0.063c3.49,2.796,17.479,13.202,28.01,8.294
	C368.406,145.471,355.346,138.122,350.494,139.91z"/>
<path style="fill:#49A010;" d="M323.618,109.206c-0.165,0.307-0.347,0.654-0.512,1.032c-4.907,10.524,5.498,24.537,8.279,27.995
	l-0.055,0.087c0,0,0.142,0.118,0.402,0.339c0.213,0.252,0.331,0.394,0.331,0.394s0.047-0.024,0.095-0.055
	c3.458,2.796,17.463,13.194,27.995,8.287c0.378-0.181,0.709-0.347,1.032-0.528c1.229-4.372-7.05-8.176-10.673-6.845
	c0,0,3.497-2.82,0.567-6.349c-2.93-3.545-10.799,0.929-10.799,0.929s3.915-3.915,3.545-6.963c-0.008-0.347-0.142-0.536-0.307-0.646
	c-0.102-0.165-0.315-0.299-0.654-0.331c-3.048-0.362-6.971,3.56-6.971,3.56s4.474-7.877,0.937-10.815
	c-3.529-2.93-6.365,0.591-6.365,0.591C331.81,116.232,327.989,107.969,323.618,109.206z"/>
<path style="fill:#AF8D5F;" d="M450.255,257.953c0,9.775-7.932,17.715-17.707,17.715H60.174c-9.799,0-17.715-7.94-17.715-17.715
	v-33.438c0-9.783,7.916-17.715,17.715-17.715h372.374c9.775,0,17.707,7.924,17.707,17.715V257.953z"/>
<path style="fill:#C69D6B;" d="M432.547,206.809H60.174c-9.799,0-17.715,7.924-17.715,17.715v19.424
	c0,9.791,7.916,17.699,17.715,17.699h372.374c9.775,0,17.707-7.908,17.707-17.699v-19.424
	C450.255,214.741,442.331,206.809,432.547,206.809z"/>
<g>
	<circle style="fill:#AF8D5F;" cx="71.359" cy="241.231" r="7.751"/>
	<circle style="fill:#AF8D5F;" cx="425.513" cy="241.231" r="7.751"/>
	<path style="fill:#AF8D5F;" d="M450.255,327.333c0,9.775-7.932,17.692-17.707,17.692H60.174c-9.799,0-17.715-7.916-17.715-17.692
		v-33.461c0-9.775,7.916-17.699,17.715-17.699h372.374c9.775,0,17.707,7.924,17.707,17.699V327.333z"/>
</g>
<path style="fill:#C69D6B;" d="M432.547,276.173H60.174c-9.799,0-17.715,7.924-17.715,17.699v19.424
	c0,9.775,7.916,17.715,17.715,17.715h372.374c9.775,0,17.707-7.94,17.707-17.715v-19.424
	C450.255,284.097,442.331,276.173,432.547,276.173z"/>
<g>
	<circle style="fill:#AF8D5F;" cx="71.359" cy="310.595" r="7.751"/>
	<circle style="fill:#AF8D5F;" cx="425.513" cy="310.595" r="7.751"/>
	<path style="fill:#AF8D5F;" d="M450.255,396.674c0,9.799-7.932,17.723-17.707,17.723H60.174c-9.799,0-17.715-7.924-17.715-17.723
		v-33.438c0-9.783,7.916-17.707,17.715-17.707h372.374c9.775,0,17.707,7.924,17.707,17.707V396.674z"/>
</g>
<path style="fill:#C69D6B;" d="M432.547,345.529H60.174c-9.799,0-17.715,7.924-17.715,17.707v19.417
	c0,9.783,7.916,17.723,17.715,17.723h372.374c9.775,0,17.707-7.94,17.707-17.723v-19.417
	C450.255,353.445,442.331,345.529,432.547,345.529z"/>
<g>
	<circle style="fill:#AF8D5F;" cx="71.359" cy="379.983" r="7.751"/>
	<circle style="fill:#AF8D5F;" cx="425.513" cy="379.983" r="7.751"/>
	<path style="fill:#AF8D5F;" d="M450.255,466.03c0,9.791-7.932,17.715-17.707,17.715H60.174c-9.799,0-17.715-7.924-17.715-17.715
		v-33.445c0-9.775,7.916-17.692,17.715-17.692h372.374c9.775,0,17.707,7.916,17.707,17.692V466.03z"/>
</g>
<path style="fill:#C69D6B;" d="M432.547,414.893H60.174c-9.799,0-17.715,7.916-17.715,17.692v19.432
	c0,9.783,7.916,17.699,17.715,17.699h372.374c9.775,0,17.707-7.916,17.707-17.699v-19.432
	C450.255,422.81,442.331,414.893,432.547,414.893z"/>
<g>
	<circle style="fill:#AF8D5F;" cx="71.359" cy="449.3" r="7.751"/>
	<circle style="fill:#AF8D5F;" cx="425.513" cy="449.3" r="7.751"/>
</g>
<path style="fill:#CC9D6E;" d="M134.319,196.057c9.444,0,17.101,7.664,17.101,17.109v264.231c0,9.468-7.656,17.124-17.101,17.124
	h-32.327c-9.452,0-17.109-7.656-17.109-17.124V213.157c0-9.444,7.656-17.109,17.109-17.109h32.327V196.057z"/>
<path style="fill:#E2B481;" d="M84.892,213.157v264.231c0,9.468,7.656,17.124,17.109,17.124h18.763
	c9.468,0,17.124-7.656,17.124-17.124V213.157c0-9.444-7.656-17.109-17.124-17.109H102C92.54,196.057,84.892,203.721,84.892,213.157z
	"/>
<g>
	<circle style="fill:#AF8D5F;" cx="118.156" cy="451.663" r="7.483"/>
	<circle style="fill:#AF8D5F;" cx="118.156" cy="243.035" r="7.483"/>
</g>
<path style="fill:#CC9D6E;" d="M347.28,196.057c-9.444,0-17.093,7.664-17.093,17.109v264.231c0,9.468,7.648,17.124,17.093,17.124
	h32.335c9.429,0,17.101-7.656,17.101-17.124V213.157c0-9.444-7.672-17.109-17.101-17.109H347.28V196.057z"/>
<path style="fill:#E2B481;" d="M396.723,213.157v264.231c0,9.468-7.672,17.124-17.101,17.124h-18.786
	c-9.452,0-17.093-7.656-17.093-17.124V213.157c0-9.444,7.641-17.109,17.093-17.109h18.786
	C389.051,196.057,396.723,203.721,396.723,213.157z"/>
<g>
	<circle style="fill:#AF8D5F;" cx="363.443" cy="451.663" r="7.483"/>
	<circle style="fill:#AF8D5F;" cx="363.443" cy="243.035" r="7.483"/>
</g>
<g>
</g>
<g>
</g>
<g>
</g>
<g>
</g>
<g>
</g>
<g>
</g>
<g>
</g>
<g>
</g>
<g>
</g>
<g>
</g>
<g>
</g>
<g>
</g>
<g>
</g>
<g>
</g>
<g>
</g>
</svg>
